<svg width="210" height="90" viewBox="0 0 210 90" fill="none" xmlns="http://www.w3.org/2000/svg">
<path d="M42.3793 31H35V59.6724H40.8706V40.9255L47.9645 59.6724H53.1828L60.2352 40.9255V59.6724H66.1058V31H58.8078L50.6135 52.321L42.3793 31ZM153.964 31H143.079V59.6724H148.95V48.4H154.127C157.592 48.4 157.755 50.851 157.918 54.6091C157.999 56.2835 157.999 57.672 158.489 59.6741H164.401C163.871 57.2646 163.421 53.2206 163.421 51.5045C163.421 48.3601 162.28 46.521 160.935 45.6231C162.892 44.0716 163.871 41.865 163.871 39.3741C163.871 33.5325 159.508 31 153.964 31ZM154.698 42.886H148.95V36.5955H154.616C156.777 36.5955 157.959 37.821 157.959 39.7399C157.959 41.7819 156.777 42.8843 154.698 42.8843M169.048 59.6724H175V31H169.048V59.6724ZM109.771 49.135L109.811 31H103.899V50.7679C103.899 53.342 102.757 54.8518 100.677 54.8518C98.4763 54.8518 97.6597 52.6053 97.6597 50.7263L91.9932 50.6847C91.9932 56.3218 94.7252 59.9967 100.636 59.9967C107.159 59.9967 109.768 55.9127 109.768 49.1317M137.697 47.828V31H131.745V46.807C131.745 51.9119 130.277 54.6091 126.526 54.6091C122.246 54.6091 121.267 51.3 121.267 46.807V31H115.354V47.828C115.354 55.7514 119.268 60 126.525 60C134.394 60 137.695 55.1811 137.695 47.828M89.9152 31H71.9764V59.6724H90.2007V54.2H77.8071V47.542H89.3044V42.2724H77.8071V36.4724H89.9152V31Z" fill="black" style="fill:black;fill-opacity:1;"/>
</svg>
